<svg width="24" height="24" viewBox="0 0 24 24" fill="none" xmlns="http://www.w3.org/2000/svg">
<path d="M8.46001 8.28999C8.2717 8.09638 8.0142 7.98551 7.74415 7.98176C7.4741 7.97801 7.21361 8.08169 7.02001 8.26999C6.8264 8.4583 6.71552 8.7158 6.71177 8.98585C6.70802 9.2559 6.8117 9.51638 7.00001 9.70999L9.34001 12L7.00001 14.29C6.90628 14.383 6.83188 14.4936 6.78112 14.6154C6.73035 14.7373 6.70421 14.868 6.70421 15C6.70421 15.132 6.73035 15.2627 6.78112 15.3846C6.83188 15.5064 6.90628 15.617 7.00001 15.71C7.09297 15.8037 7.20357 15.8781 7.32543 15.9289C7.44729 15.9797 7.57799 16.0058 7.71001 16.0058C7.84202 16.0058 7.97272 15.9797 8.09458 15.9289C8.21644 15.8781 8.32704 15.8037 8.42001 15.71L11.42 12.71C11.5137 12.617 11.5881 12.5064 11.6389 12.3846C11.6897 12.2627 11.7158 12.132 11.7158 12C11.7158 11.868 11.6897 11.7373 11.6389 11.6154C11.5881 11.4936 11.5137 11.383 11.42 11.29L8.46001 8.28999ZM16.96 11.29L13.96 8.28999C13.7717 8.10169 13.5163 7.9959 13.25 7.9959C12.9837 7.9959 12.7283 8.10169 12.54 8.28999C12.3517 8.47829 12.2459 8.73369 12.2459 8.99999C12.2459 9.26629 12.3517 9.52169 12.54 9.70999L14.84 12L12.54 14.29C12.4463 14.383 12.3719 14.4936 12.3211 14.6154C12.2703 14.7373 12.2442 14.868 12.2442 15C12.2442 15.132 12.2703 15.2627 12.3211 15.3846C12.3719 15.5064 12.4463 15.617 12.54 15.71C12.633 15.8037 12.7436 15.8781 12.8654 15.9289C12.9873 15.9797 13.118 16.0058 13.25 16.0058C13.382 16.0058 13.5127 15.9797 13.6346 15.9289C13.7564 15.8781 13.867 15.8037 13.96 15.71L16.96 12.71C17.0564 12.6197 17.134 12.5112 17.1882 12.3908C17.2424 12.2703 17.2723 12.1404 17.276 12.0083C17.2797 11.8763 17.2572 11.7448 17.2099 11.6216C17.1625 11.4983 17.0912 11.3856 17 11.29H16.96Z" fill="white"/>
</svg>
