<svg width="24" height="24" viewBox="0 0 24 24" fill="none" xmlns="http://www.w3.org/2000/svg">
<path d="M13.2707 6.94697C13.2707 6.48185 12.9051 6.1048 12.4541 6.1048C12.0031 6.1048 11.6374 6.48185 11.6374 6.94697V17.053C11.6374 17.5182 12.0031 17.8952 12.4541 17.8952C12.9051 17.8952 13.2707 17.5182 13.2707 17.053V6.94697Z" fill="white"/>
<path d="M17.1058 10.2028C17.4964 9.97021 17.6303 9.45515 17.4048 9.05234C17.1792 8.64954 16.6798 8.51152 16.2892 8.74408L7.80229 13.7971C7.41169 14.0297 7.27786 14.5447 7.50337 14.9475C7.72888 15.3504 8.22834 15.4884 8.61894 15.2558L17.1058 10.2028Z" fill="white"/>
<path d="M16.2892 15.2559C16.6798 15.4884 17.1792 15.3504 17.4048 14.9476C17.6303 14.5448 17.4964 14.0297 17.1058 13.7972L8.61894 8.74414C8.22834 8.51158 7.72888 8.64959 7.50337 9.0524C7.27786 9.4552 7.41169 9.97027 7.80229 10.2028L16.2892 15.2559Z" fill="white"/>
</svg>
