<svg width="24" height="24" viewBox="0 0 24 24" fill="none" xmlns="http://www.w3.org/2000/svg">
<path d="M18.54 9L8.87997 3.46C8.35725 3.15816 7.76397 3.00003 7.16036 3.00169C6.55676 3.00335 5.96435 3.16473 5.4433 3.46943C4.92225 3.77414 4.49112 4.21132 4.19372 4.73657C3.89631 5.26182 3.74321 5.85643 3.74997 6.46V17.58C3.74997 18.487 4.11029 19.3569 4.75167 19.9983C5.39304 20.6397 6.26293 21 7.16997 21C7.77041 20.999 8.36006 20.8404 8.87997 20.54L18.54 15C19.059 14.6996 19.49 14.268 19.7896 13.7484C20.0891 13.2289 20.2468 12.6397 20.2468 12.04C20.2468 11.4403 20.0891 10.8511 19.7896 10.3316C19.49 9.81203 19.059 9.38041 18.54 9.08V9ZM17.54 13.19L7.87997 18.81C7.66346 18.9327 7.41884 18.9972 7.16997 18.9972C6.9211 18.9972 6.67648 18.9327 6.45997 18.81C6.24407 18.6853 6.06479 18.506 5.94015 18.2901C5.81552 18.0742 5.74993 17.8293 5.74997 17.58V6.42C5.74993 6.17069 5.81552 5.92577 5.94015 5.70986C6.06479 5.49394 6.24407 5.31465 6.45997 5.19C6.67738 5.06915 6.92127 5.00389 7.16997 5C7.4185 5.0051 7.66211 5.07029 7.87997 5.19L17.54 10.77C17.756 10.8946 17.9353 11.0739 18.06 11.2898C18.1847 11.5057 18.2504 11.7507 18.2504 12C18.2504 12.2493 18.1847 12.4943 18.06 12.7102C17.9353 12.9261 17.756 13.1054 17.54 13.23V13.19Z" fill="white"/>
</svg>
