<svg width="175" height="22" viewBox="0 0 175 22" fill="none" xmlns="http://www.w3.org/2000/svg">
<path d="M3.19614 11.78V17H1.54014V4.112H5.93214C7.04814 4.112 7.99614 4.484 8.77614 5.228C9.56814 5.972 9.96414 6.878 9.96414 7.946C9.96414 9.038 9.56814 9.95 8.77614 10.682C8.00814 11.414 7.06014 11.78 5.93214 11.78H3.19614ZM3.19614 5.696V10.196H5.96814C6.62814 10.196 7.17414 9.974 7.60614 9.53C8.05014 9.086 8.27214 8.558 8.27214 7.946C8.27214 7.346 8.05014 6.824 7.60614 6.38C7.17414 5.924 6.62814 5.696 5.96814 5.696H3.19614ZM10.2755 12.59C10.2755 11.234 10.7015 10.112 11.5535 9.224C12.4175 8.336 13.5035 7.892 14.8115 7.892C16.1195 7.892 17.1995 8.336 18.0515 9.224C18.9155 10.112 19.3475 11.234 19.3475 12.59C19.3475 13.958 18.9155 15.08 18.0515 15.956C17.1995 16.844 16.1195 17.288 14.8115 17.288C13.5035 17.288 12.4175 16.844 11.5535 15.956C10.7015 15.068 10.2755 13.946 10.2755 12.59ZM11.9315 12.59C11.9315 13.538 12.2075 14.306 12.7595 14.894C13.3115 15.482 13.9955 15.776 14.8115 15.776C15.6275 15.776 16.3115 15.482 16.8635 14.894C17.4155 14.306 17.6915 13.538 17.6915 12.59C17.6915 11.654 17.4155 10.892 16.8635 10.304C16.2995 9.704 15.6155 9.404 14.8115 9.404C14.0075 9.404 13.3235 9.704 12.7595 10.304C12.2075 10.892 11.9315 11.654 11.9315 12.59ZM33.168 8.18L30.324 17H28.632L26.436 10.232L24.258 17H22.584L19.74 8.18H21.468L23.43 14.84H23.448L25.626 8.18H27.336L29.514 14.84H29.532L31.476 8.18H33.168ZM38.0305 17.288C36.7345 17.288 35.6665 16.844 34.8265 15.956C33.9865 15.068 33.5665 13.946 33.5665 12.59C33.5665 11.246 33.9745 10.13 34.7905 9.242C35.6065 8.342 36.6505 7.892 37.9225 7.892C39.2305 7.892 40.2685 8.318 41.0365 9.17C41.8165 10.01 42.2065 11.192 42.2065 12.716L42.1885 12.896H35.2585C35.2825 13.76 35.5705 14.456 36.1225 14.984C36.6745 15.512 37.3345 15.776 38.1025 15.776C39.1585 15.776 39.9865 15.248 40.5865 14.192L42.0625 14.912C41.6665 15.656 41.1145 16.238 40.4065 16.658C39.7105 17.078 38.9185 17.288 38.0305 17.288ZM35.3845 11.528H40.4425C40.3945 10.916 40.1425 10.412 39.6865 10.016C39.2425 9.608 38.6425 9.404 37.8865 9.404C37.2625 9.404 36.7225 9.596 36.2665 9.98C35.8225 10.364 35.5285 10.88 35.3845 11.528ZM45.3769 17H43.7209V8.18H45.3049V9.62H45.3769C45.5449 9.152 45.8869 8.756 46.4029 8.432C46.9309 8.096 47.4469 7.928 47.9509 7.928C48.4309 7.928 48.8389 8 49.1749 8.144L48.6709 9.746C48.4669 9.662 48.1429 9.62 47.6989 9.62C47.0749 9.62 46.5289 9.872 46.0609 10.376C45.6049 10.88 45.3769 11.468 45.3769 12.14V17ZM53.675 17.288C52.379 17.288 51.311 16.844 50.471 15.956C49.631 15.068 49.211 13.946 49.211 12.59C49.211 11.246 49.619 10.13 50.435 9.242C51.251 8.342 52.295 7.892 53.567 7.892C54.875 7.892 55.913 8.318 56.681 9.17C57.461 10.01 57.851 11.192 57.851 12.716L57.833 12.896H50.903C50.927 13.76 51.215 14.456 51.767 14.984C52.319 15.512 52.979 15.776 53.747 15.776C54.803 15.776 55.631 15.248 56.231 14.192L57.707 14.912C57.311 15.656 56.759 16.238 56.051 16.658C55.355 17.078 54.563 17.288 53.675 17.288ZM51.029 11.528H56.087C56.039 10.916 55.787 10.412 55.331 10.016C54.887 9.608 54.287 9.404 53.531 9.404C52.907 9.404 52.367 9.596 51.911 9.98C51.467 10.364 51.173 10.88 51.029 11.528ZM63.4133 15.776C64.2293 15.776 64.8953 15.482 65.4113 14.894C65.9513 14.306 66.2213 13.538 66.2213 12.59C66.2213 11.666 65.9513 10.904 65.4113 10.304C64.8833 9.704 64.2173 9.404 63.4133 9.404C62.6213 9.404 61.9553 9.704 61.4153 10.304C60.8753 10.904 60.6053 11.666 60.6053 12.59C60.6053 13.526 60.8753 14.288 61.4153 14.876C61.9553 15.476 62.6213 15.776 63.4133 15.776ZM63.1433 17.288C61.9913 17.288 61.0013 16.832 60.1733 15.92C59.3573 14.996 58.9493 13.886 58.9493 12.59C58.9493 11.294 59.3573 10.184 60.1733 9.26C61.0013 8.348 61.9913 7.892 63.1433 7.892C63.7913 7.892 64.3793 8.03 64.9073 8.306C65.4473 8.582 65.8613 8.948 66.1493 9.404H66.2213L66.1493 8.18V4.112H67.8053V17H66.2213V15.776H66.1493C65.8613 16.232 65.4473 16.598 64.9073 16.874C64.3793 17.15 63.7913 17.288 63.1433 17.288ZM78.4415 17.288C77.7935 17.288 77.1995 17.15 76.6595 16.874C76.1315 16.598 75.7235 16.232 75.4355 15.776H75.3635V17H73.7795V4.112H75.4355V8.18L75.3635 9.404H75.4355C75.7235 8.948 76.1315 8.582 76.6595 8.306C77.1995 8.03 77.7935 7.892 78.4415 7.892C79.6055 7.892 80.5895 8.348 81.3935 9.26C82.2215 10.184 82.6355 11.294 82.6355 12.59C82.6355 13.898 82.2215 15.008 81.3935 15.92C80.5895 16.832 79.6055 17.288 78.4415 17.288ZM78.1715 15.776C78.9635 15.776 79.6295 15.476 80.1695 14.876C80.7095 14.288 80.9795 13.526 80.9795 12.59C80.9795 11.666 80.7095 10.904 80.1695 10.304C79.6295 9.704 78.9635 9.404 78.1715 9.404C77.3675 9.404 76.6955 9.704 76.1555 10.304C75.6275 10.904 75.3635 11.666 75.3635 12.59C75.3635 13.526 75.6275 14.294 76.1555 14.894C76.6955 15.482 77.3675 15.776 78.1715 15.776ZM91.683 8.18L86.157 20.888H84.447L86.499 16.442L82.863 8.18H84.663L87.291 14.516H87.327L89.883 8.18H91.683Z" fill="#454B6B"/>
<path fill-rule="evenodd" clip-rule="evenodd" d="M100 3.72728C100 2.92396 100.651 2.27274 101.455 2.27274C102.258 2.27274 102.909 2.92396 102.909 3.72728V14.6364C102.909 15.4397 102.258 16.0909 101.455 16.0909C100.651 16.0909 100 15.4397 100 14.6364V3.72728ZM106.545 7.36365C106.545 6.56032 107.197 5.9091 108 5.9091C108.803 5.9091 109.455 6.56032 109.455 7.36364V18.2727C109.455 19.0761 108.803 19.7273 108 19.7273C107.197 19.7273 106.545 19.0761 106.545 18.2727V7.36365ZM114.545 2.27274C113.742 2.27274 113.091 2.92396 113.091 3.72728V14.6364C113.091 15.4397 113.742 16.0909 114.545 16.0909C115.349 16.0909 116 15.4397 116 14.6364V3.72728C116 2.92396 115.349 2.27274 114.545 2.27274Z" fill="#454B6B"/>
<path d="M123.385 4.112H125.815V17H123.385V4.112ZM127.692 14.552L134.226 6.416H127.98V4.112H137.052V6.56L130.59 14.696H137.124V17H127.692V14.552ZM139.135 4.112H147.307V6.416H141.565V9.548H146.731V11.852H141.565V17H139.135V4.112ZM149.172 4.112H151.602V14.696H157.056V17H149.172V4.112ZM158.787 4.112H161.217V17H158.787V4.112ZM167.037 10.268L163.131 4.112H166.137L168.639 8.324H168.783L171.285 4.112H174.291L170.385 10.268L174.615 17H171.591L168.783 12.356H168.639L165.831 17H162.807L167.037 10.268Z" fill="#454B6B"/>
</svg>
